<?xml version="1.0" encoding="utf-8"?>
<!-- Generator: Adobe Illustrator 18.1.1, SVG Export Plug-In . SVG Version: 6.00 Build 0)  -->
<!DOCTYPE svg PUBLIC "-//W3C//DTD SVG 1.1//EN" "http://www.w3.org/Graphics/SVG/1.1/DTD/svg11.dtd">
<svg version="1.1" xmlns="http://www.w3.org/2000/svg" xmlns:xlink="http://www.w3.org/1999/xlink" x="0px" y="0px"
	 viewBox="0 21 100 60" enable-background="new 0 21 100 60" xml:space="preserve">
<g id="Layer_3">
</g>
<g id="Layer_1" display="none">
	<title>Visa-dark</title>
	<desc>Created with Sketch.</desc>
	<g id="Payment-badge-set" display="inline">
		<g id="Dark-Payment-badges" transform="translate(-130.000000, -164.000000)">
			<g id="Visa-dark" transform="translate(130.000000, 164.000000)">
				<path id="Rectangle" fill="#26337A" d="M4,21h92c2.2,0,4,1.8,4,4v52c0,2.2-1.8,4-4,4H4c-2.2,0-4-1.8-4-4V25C0,22.8,1.8,21,4,21z
					"/>
				<polyline id="Fill-3" fill="#FFFFFF" points="41.5,60.5 44.6,41.5 49.5,41.5 46.4,60.5 41.5,60.5 				"/>
				<path id="Fill-4" fill="#FFFFFF" d="M64.2,41.9c-1-0.4-2.5-0.8-4.4-0.8c-4.9,0-8.3,2.6-8.3,6.3c0,2.7,2.4,4.3,4.3,5.2
					c1.9,0.9,2.6,1.5,2.6,2.4c0,1.3-1.5,1.9-2.9,1.9c-2,0-3-0.3-4.6-1l-0.6-0.3l-0.7,4.3c1.1,0.5,3.3,1,5.5,1c5.2,0,8.5-2.6,8.6-6.5
					c0-2.2-1.3-3.8-4.1-5.2c-1.7-0.9-2.8-1.5-2.8-2.4c0-0.8,0.9-1.6,2.8-1.6c1.6,0,2.8,0.3,3.7,0.7l0.4,0.2L64.2,41.9"/>
				<path id="Fill-5" fill="#FFFFFF" d="M70.8,53.8c0.4-1.1,2-5.3,2-5.3c0,0.1,0.4-1.1,0.7-1.8l0.3,1.6c0,0,0.9,4.6,1.1,5.5H70.8
					L70.8,53.8z M76.8,41.5H73c-1.2,0-2.1,0.3-2.6,1.6l-7.3,17.5h5.2c0,0,0.8-2.4,1-2.9c0.6,0,5.6,0,6.3,0c0.1,0.7,0.6,2.9,0.6,2.9
					h4.6L76.8,41.5L76.8,41.5z"/>
				<path id="Fill-6" fill="#FFFFFF" d="M37.4,41.5l-4.8,13L32,51.8c-0.9-3-3.7-6.3-6.8-8l4.4,16.7l5.2,0l7.7-19H37.4"/>
				<path id="Fill-7" fill="#ED982D" d="M28.1,41.5h-7.9l-0.1,0.4c6.2,1.6,10.2,5.4,11.9,10l-1.7-8.8C30,41.9,29.2,41.5,28.1,41.5"
					/>
			</g>
		</g>
	</g>
</g>
<g id="Layer_4">
	<path fill="#E30613" d="M97,81H3c-1.7,0-3-1.3-3-3V24c0-1.7,1.3-3,3-3H97c1.7,0,3,1.3,3,3v54C100,79.6,98.6,81,97,81z"/>
</g>
<g id="Layer_5">
</g>
<g id="Layer_2">
	<path fill="#FFFFFF" d="M0.1,66.4L0.1,66.4c0-0.1,0-0.3,0-0.4V66.4z"/>
	<path fill="#FFFFFF" d="M99.8,36.5L99.8,36.5l0.1-1.1h0c0,0.2,0,0.4,0,0.6l-23,0.1c-0.4,0.2-0.6,0.8-1.1,1.1
		c-3.2,3.9-6.4,8-9.7,11.7c0.4-4.2,0.6-8.6,1.1-12.8l-19-0.1c-0.2,3.8-0.4,7.5-0.6,11.1c-0.8-4.1-4.2-8.7-8.5-9.9
		c-2-0.6-3.9-1.1-6-1.2l-33,0.2V66l32.1-0.2c4.9-0.6,9.6-2.7,12.4-7.2c1.1-1.7,1.8-3.4,2.5-5.1c-0.4,4.1-0.5,8.4-1,12.5
		c6.1-0.1,18.9,0,18.9,0c0.2-5.1,0.4-10.5,0.8-15.6l10.1,14.4c0.4,1.3,1.4,1,2.5,1h21.5c0,0.2,0,0.4,0,0.6h0v-1.1h0
		c0,0.1-0.1,0.1,0,0.2c-4.7-5-8.8-10.6-12.9-16l0.1-0.2C91.3,44.8,95.2,40.3,99.8,36.5z M28.2,53.3c-2.6,2-6.5,1.1-9.9,1.2l0.5-7.8
		c3.5,0.2,10-1.2,11.2,3.2C30.1,51.4,29.2,52.5,28.2,53.3z"/>
</g>
<g id="Layer_6" display="none">
</g>
<g id="Layer_7" display="none">
</g>
</svg>
