<?xml version="1.0" encoding="UTF-8"?>
<svg width="169px" height="48px" viewBox="0 0 169 48" version="1.1" xmlns="http://www.w3.org/2000/svg" xmlns:xlink="http://www.w3.org/1999/xlink">
    <!-- Generator: Sketch 46.2 (44496) - http://www.bohemiancoding.com/sketch -->
    <title>mp-blue/large</title>
    <desc>Created with Sketch.</desc>
    <defs>
        <radialGradient cx="73.196656%" cy="43.9100703%" fx="73.196656%" fy="43.9100703%" r="28.551437%" gradientTransform="translate(0.731967,0.439101),scale(1.000000,0.746124),rotate(-79.146401),translate(-0.731967,-0.439101)" id="radialGradient-1">
            <stop stop-color="#D6D4E0" offset="0%"/>
            <stop stop-color="#D6D4E0" offset="72.9432398%"/>
            <stop stop-color="#FFFFFF" offset="100%"/>
        </radialGradient>
        <path d="M9.11429161,1.09142294 C8.99810292,1.09142294 8.88055926,1.11403994 8.7670805,1.16275346 L1.62638765,4.20073739 C1.4014626,4.29642466 1.22599396,4.47631674 1.1331785,4.70735801 C1.03968556,4.93805132 1.03968556,5.19240549 1.1331785,5.42344676 L7.95104971,22.330866 C8.14345548,22.8079106 8.6786687,23.0351243 9.14105227,22.8374866 L16.2817451,19.7991547 C16.7461612,19.601517 16.96736,19.053142 16.775293,18.5760974 L9.95742181,1.66902612 C9.81210126,1.30889402 9.47200374,1.09142294 9.11429161,1.09142294 M8.79553488,24 C8.02049193,24 7.2837269,23.5285227 6.96903507,22.7487584 L0.151163861,5.84099123 C-0.0503879536,5.34098173 -0.0503879536,4.78982304 0.151163861,4.28946559 C0.353054418,3.78910814 0.732446069,3.39939997 1.21955785,3.19236751 L8.36025071,0.15403562 C9.3649611,-0.272903595 10.5221056,0.218059105 10.9390977,1.2511337 L17.7569689,18.1585529 C18.1729448,19.1916275 17.6939628,20.3798895 16.6889137,20.8075246 L9.54822081,23.8458565 C9.30195498,23.9505906 9.0465431,24 8.79553488,24" id="path-2"/>
        <linearGradient x1="21.0049511%" y1="100%" x2="71.2748178%" y2="70.9328455%" id="linearGradient-3">
            <stop stop-color="#D3D0DD" offset="0%"/>
            <stop stop-color="#FFFFFF" offset="100%"/>
        </linearGradient>
        <radialGradient cx="61.7252529%" cy="52.4925489%" fx="61.7252529%" fy="52.4925489%" r="38.3317895%" gradientTransform="translate(0.617253,0.524925),scale(0.866798,1.000000),rotate(90.000000),scale(1.000000,1.938334),translate(-0.617253,-0.524925)" id="radialGradient-4">
            <stop stop-color="#DAD7E2" offset="0%"/>
            <stop stop-color="#D9D6E2" offset="58.1832162%"/>
            <stop stop-color="#FFFFFF" stop-opacity="0" offset="100%"/>
        </radialGradient>
        <path d="M15.185131,12.4694169 C13.1364616,13.3420982 11.4262355,14.5483283 10.3059066,16 L7.41860465,8.82415459 C8.64359272,7.30710172 10.2488198,6.16660242 12.2974892,5.29392116 C14.3468382,4.4212399 16.4162355,3.99678676 18.1743737,4.24327726 L21.0620155,11.418773 C19.2359168,11.2222799 17.2341402,11.5970853 15.185131,12.4694169" id="path-5"/>
    </defs>
    <g id="Exportable-buttons" stroke="none" stroke-width="1" fill="none" fill-rule="evenodd">
        <g id="Buttons" transform="translate(-55.000000, -60.000000)">
            <g id="mp-blue/large" transform="translate(55.000000, 60.000000)">
                <rect id="Background" fill="#5A78FF" x="0" y="0" width="169" height="48" rx="4"/>
                <g id="Logo-/-Full-colour-/-White" transform="translate(24.000000, 12.000000)">
                    <g id="White-logo">
                        <g id="Frame">
                            <use fill="#FFFFFF" xlink:href="#path-2"/>
                            <use fill="url(#radialGradient-1)" xlink:href="#path-2"/>
                        </g>
                        <g id="Bill">
                            <use fill="url(#linearGradient-3)" xlink:href="#path-5"/>
                            <use fill="url(#radialGradient-4)" xlink:href="#path-5"/>
                        </g>
                        <path d="M16.1585738,14.6693987 C13.9337719,14.6690522 11.897865,15.1063488 10.3178295,15.9982674 L10.3188524,8.80747633 C12.0206127,7.89615305 13.9347948,7.47791457 16.1595967,7.47826108 C18.3843986,7.4786076 20.4615623,7.89753909 22,8.80920888 L21.9989771,16 C20.3793895,15.1073883 18.3833757,14.6697452 16.1585738,14.6693987" id="Bill" fill="#FFFFFF"/>
                    </g>
                </g>
                <path d="M52.234,30 L54.286,30 C54.448,30 54.574,29.928 54.628,29.748 L57.004,22.242 C57.04,22.098 57.184,22.098 57.238,22.242 L60.064,29.694 C60.136,29.892 60.244,30 60.442,30 L61.72,30 C61.9,30 62.044,29.91 62.116,29.694 L64.852,22.242 C64.906,22.098 65.068,22.098 65.104,22.242 L67.426,29.748 C67.462,29.892 67.57,30 67.75,30 L69.928,30 C70.144,30 70.27,29.838 70.198,29.604 L66.616,18.048 C66.562,17.886 66.436,17.76 66.274,17.76 L64.438,17.76 C64.276,17.76 64.132,17.904 64.078,18.048 L61.252,25.338 C61.198,25.5 61.054,25.482 61,25.338 L58.156,18.048 C58.102,17.904 57.958,17.76 57.796,17.76 L55.96,17.76 C55.798,17.76 55.672,17.886 55.618,18.048 L51.964,29.604 C51.892,29.856 52.018,30 52.234,30 Z M75.616,30.234 C72.844,30.234 70.792,28.146 70.792,25.482 C70.792,22.8 72.844,20.73 75.616,20.73 C78.406,20.73 80.44,22.8 80.44,25.482 C80.44,28.146 78.406,30.234 75.616,30.234 Z M75.616,28.002 C76.93,28.002 77.992,26.868 77.992,25.482 C77.992,24.078 76.93,22.962 75.616,22.962 C74.32,22.962 73.24,24.078 73.24,25.482 C73.24,26.868 74.32,28.002 75.616,28.002 Z M87.208,30.234 C86.146,30.234 85.426,29.802 84.76,29.262 C84.58,29.118 84.418,29.172 84.418,29.424 L84.418,29.658 C84.418,29.838 84.274,30 84.094,30 L82.402,30 C82.222,30 82.06,29.838 82.06,29.658 L82.06,18.102 C82.06,17.922 82.222,17.76 82.402,17.76 L84.184,17.76 C84.364,17.76 84.508,17.922 84.508,18.102 L84.508,21.396 C84.508,21.63 84.67,21.702 84.922,21.522 C85.462,21.126 86.254,20.73 87.28,20.73 C89.746,20.73 91.636,22.818 91.636,25.482 C91.636,28.146 89.71,30.234 87.208,30.234 Z M86.794,27.984 C88.126,27.984 89.188,26.868 89.188,25.482 C89.188,24.078 88.126,22.962 86.794,22.962 C85.498,22.962 84.436,24.06 84.436,25.482 C84.436,26.886 85.48,27.984 86.794,27.984 Z M94.498,19.974 C95.236,19.974 95.866,19.344 95.866,18.606 C95.866,17.868 95.236,17.238 94.498,17.238 C93.76,17.238 93.13,17.868 93.13,18.606 C93.13,19.344 93.76,19.974 94.498,19.974 Z M93.58,30 L95.362,30 C95.542,30 95.704,29.838 95.704,29.658 L95.704,21.306 C95.704,21.126 95.542,20.964 95.362,20.964 L93.58,20.964 C93.4,20.964 93.256,21.126 93.256,21.306 L93.256,29.658 C93.256,29.838 93.4,30 93.58,30 Z M101.014,30.09 C101.194,30.09 101.356,29.946 101.356,29.766 L101.356,28.29 C101.356,28.092 101.194,27.948 101.014,27.948 C100.384,27.948 100.132,27.57 100.132,26.994 L100.132,18.102 C100.132,17.922 99.97,17.76 99.79,17.76 L98.008,17.76 C97.828,17.76 97.684,17.922 97.684,18.102 L97.684,26.94 C97.684,29.316 98.638,30.09 101.014,30.09 Z M106.774,30.234 C104.038,30.234 102.094,28.236 102.094,25.518 C102.094,22.782 104.11,20.73 106.81,20.73 C109.492,20.73 111.454,22.818 111.454,25.554 C111.454,25.878 111.364,26.148 111.04,26.148 L104.848,26.148 C104.686,26.148 104.632,26.238 104.65,26.382 C104.776,27.408 105.676,28.164 106.846,28.164 C107.62,28.164 108.178,27.822 108.556,27.39 C108.754,27.174 108.916,27.102 109.132,27.102 L110.788,27.102 C111.076,27.102 111.202,27.3 111.094,27.588 C110.5,29.118 108.808,30.234 106.774,30.234 Z M104.866,24.69 L108.664,24.69 C108.79,24.69 108.844,24.636 108.826,24.492 C108.646,23.538 107.8,22.8 106.774,22.8 C105.784,22.8 104.956,23.502 104.722,24.438 C104.686,24.564 104.704,24.69 104.866,24.69 Z M113.56,30 C113.38,30 113.236,29.838 113.236,29.658 L113.236,18.102 C113.236,17.922 113.38,17.76 113.56,17.76 L119.23,17.76 C121.822,17.76 123.586,19.272 123.586,21.81 C123.586,24.294 121.588,25.914 119.104,25.914 L116.098,25.914 C115.882,25.914 115.774,26.04 115.774,26.256 L115.774,29.658 C115.774,29.838 115.612,30 115.432,30 L113.56,30 Z M116.08,23.826 L119.104,23.826 C120.346,23.826 121.03,22.764 121.03,21.828 C121.03,20.838 120.364,19.902 119.104,19.902 L116.08,19.902 C115.864,19.902 115.774,20.01 115.774,20.226 L115.774,23.502 C115.774,23.718 115.864,23.826 116.08,23.826 Z M129.058,30.234 C126.646,30.234 124.63,28.2 124.63,25.482 C124.63,22.746 126.682,20.73 129.094,20.73 C130.12,20.73 130.84,21.126 131.488,21.648 C131.65,21.792 131.83,21.774 131.83,21.558 L131.83,21.288 C131.83,21.108 131.974,20.964 132.154,20.964 L133.846,20.964 C134.026,20.964 134.188,21.126 134.188,21.306 L134.188,27.264 C134.188,27.714 134.35,27.912 134.656,27.93 C134.818,27.948 134.962,28.056 134.962,28.218 L134.962,29.784 C134.962,29.946 134.836,30.09 134.656,30.09 C133.468,30.09 132.766,29.748 132.37,29.064 C132.262,28.884 132.136,28.848 131.956,29.028 C131.236,29.694 130.408,30.234 129.058,30.234 Z M129.472,28.002 C130.786,28.002 131.83,26.886 131.83,25.482 C131.83,24.06 130.786,22.962 129.472,22.962 C128.14,22.962 127.096,24.078 127.096,25.482 C127.096,26.868 128.14,28.002 129.472,28.002 Z M136.222,33.51 C138.85,33.51 140.164,32.412 141.406,29.478 L144.808,21.396 C144.898,21.18 144.736,20.964 144.502,20.964 L142.792,20.964 C142.612,20.964 142.522,21.072 142.45,21.252 L140.47,26.058 C140.308,26.436 140.092,26.454 139.93,26.076 L137.86,21.288 C137.788,21.108 137.68,20.964 137.5,20.964 L135.718,20.964 C135.502,20.964 135.322,21.162 135.43,21.45 L138.742,28.938 C138.85,29.19 138.886,29.388 138.814,29.658 C138.562,30.756 137.41,31.386 136.222,31.386 C136.042,31.386 135.88,31.53 135.88,31.71 L135.88,33.168 C135.88,33.348 136.042,33.51 136.222,33.51 Z" id="Label" fill="#FFFFFF"/>
            </g>
        </g>
    </g>
</svg>